# xmcd
#
# Track frame offsets:
# 150
# 23177
# 38692
# 56457
# 71202
# 88562
# 104000
# 119992
# 136530
# 150772
# 163820
# 175097
# 195432
# 210885
# 224645
# 238887
# 257657
#
# Disc length: 3591 seconds
#
#
# Revision: 2
# Processed by: cddbd v1.5.1PL0 Copyright (c) Steve Scherf et al.
# Submitted via: FreeRIP 2.941 
#
DISCID=ec0e0511
DTITLE=Jaguariuna Rodeo Festival 2005 - DIV
DYEAR=2005
DGENRE=Black Metal
TTITLE0=Tropeito Campeão (Leo and Leo)
TTITLE1=Gostosa (Juliano Cesar)
TTITLE2=Dona da Verdade (Chico Rey and Parana)
TTITLE3=Show Brasileiro (Gleydson Rodrigues) Part. Bob Joe
TTITLE4=Vou Beber Veneno (Gino and Geno)
TTITLE5=Eu me Enganei (Ataide and Alexandre)
TTITLE6=Jaguariuna Pura Emoção (Gardel)
TTITLE7=Magia (Roby and Roger)
TTITLE8=Quero Ser Seu Dono (Sula Mazurega com Matogrosso and Mathias)
TTITLE9=Mala Amarela (Otávio Augusto and Gabriel)
TTITLE10=Eu to Parpano (Trio Parada Dura)
TTITLE11=Moda de Truco (As Galvão)
TTITLE12=Quero Provar que te Amo (João Bosco and Vinícius)
TTITLE13=Ela É Show (Guto and Nando)
TTITLE14=Vivendo no Sertão (João Mulato and Douradinho)
TTITLE15=PP a) Chega b)Fui Dando Porrada (Tradição)
TTITLE16=Dim Terim Bebim (Betto and Menon)
EXTD=NIL
EXTT0=
EXTT1=
EXTT2=
EXTT3=
EXTT4=
EXTT5=
EXTT6=
EXTT7=
EXTT8=
EXTT9=
EXTT10=
EXTT11=
EXTT12=
EXTT13=
EXTT14=
EXTT15=
EXTT16=
PLAYORDER=
